<?xml version="1.0" encoding="utf-8"?>
<!-- Generator: Adobe Illustrator 21.1.0, SVG Export Plug-In . SVG Version: 6.00 Build 0)  -->
<!DOCTYPE svg PUBLIC "-//W3C//DTD SVG 1.1//EN" "http://www.w3.org/Graphics/SVG/1.1/DTD/svg11.dtd">
<svg version="1.1" id="reconstructed" xmlns="http://www.w3.org/2000/svg" xmlns:xlink="http://www.w3.org/1999/xlink" x="0px"
	 y="0px" viewBox="0 0 1000 1000" style="enable-background:new 0 0 1000 1000;" xml:space="preserve">
<style type="text/css">
	.st0{fill:#064545;}
</style>
<path class="st0" d="M671.4,295.7l91.2,158l-31.7,179.6L591.2,750.6H408.8L269.1,633.3l-31.7-179.6l91.2-158L500,233.3L671.4,295.7z
	 M25.3,453.7l44.5,252.2c4.4,24.9,17.4,47.5,36.8,63.8l196.1,164.6c19.4,16.3,43.9,25.2,69.2,25.2H628c25.3,0,49.8-8.9,69.2-25.2
	l196.1-164.6c19.4-16.3,32.4-38.8,36.8-63.8l44.5-252.2c4.4-24.9-0.1-50.6-12.8-72.5l-128-221.7c-12.7-21.9-32.6-38.7-56.4-47.3
	L536.8,24.5c-23.8-8.7-49.9-8.7-73.6,0l-240.6,87.6c-23.8,8.7-43.8,25.4-56.4,47.3l-128,221.7C25.5,403.1,20.9,428.8,25.3,453.7z"/>
</svg>
